<mxfile host="app.diagrams.net" modified="2022-01-14T09:01:31.523Z" agent="5.0 (Windows NT 10.0; Win64; x64) AppleWebKit/537.36 (KHTML, like Gecko) Chrome/97.0.4692.71 Safari/537.36" etag="D9PG7UeJdlfu8QhkUcyv" version="16.2.4" type="github">
  <diagram id="rvKKim161by0PI5GdYQp" name="Page-1">
    <mxGraphModel dx="2128" dy="1685" grid="1" gridSize="10" guides="1" tooltips="1" connect="1" arrows="1" fold="1" page="1" pageScale="1" pageWidth="850" pageHeight="1100" math="0" shadow="0">
      <root>
        <mxCell id="0" />
        <mxCell id="1" parent="0" />
        <mxCell id="5pwwVfKfr-lbxXTn7qkp-2" value="user" style="shape=umlActor;verticalLabelPosition=bottom;verticalAlign=top;html=1;outlineConnect=0;" parent="1" vertex="1">
          <mxGeometry x="-40" y="180" width="30" height="60" as="geometry" />
        </mxCell>
        <mxCell id="5pwwVfKfr-lbxXTn7qkp-3" value="registered" style="shape=umlActor;verticalLabelPosition=bottom;verticalAlign=top;html=1;outlineConnect=0;" parent="1" vertex="1">
          <mxGeometry x="120" y="20" width="30" height="60" as="geometry" />
        </mxCell>
        <mxCell id="5pwwVfKfr-lbxXTn7qkp-8" value="visiting" style="shape=umlActor;verticalLabelPosition=bottom;verticalAlign=top;html=1;outlineConnect=0;" parent="1" vertex="1">
          <mxGeometry x="120" y="580" width="30" height="60" as="geometry" />
        </mxCell>
        <mxCell id="5pwwVfKfr-lbxXTn7qkp-16" value="" style="endArrow=block;endSize=16;endFill=0;html=1;rounded=0;exitX=0;exitY=0.3333333333333333;exitDx=0;exitDy=0;exitPerimeter=0;" parent="1" source="5pwwVfKfr-lbxXTn7qkp-8" target="5pwwVfKfr-lbxXTn7qkp-2" edge="1">
          <mxGeometry width="160" relative="1" as="geometry">
            <mxPoint x="120" y="350" as="sourcePoint" />
            <mxPoint x="30" y="240" as="targetPoint" />
          </mxGeometry>
        </mxCell>
        <mxCell id="5pwwVfKfr-lbxXTn7qkp-17" value="" style="endArrow=block;endSize=16;endFill=0;html=1;rounded=0;" parent="1" source="5pwwVfKfr-lbxXTn7qkp-3" target="5pwwVfKfr-lbxXTn7qkp-2" edge="1">
          <mxGeometry width="160" relative="1" as="geometry">
            <mxPoint x="100" y="50" as="sourcePoint" />
            <mxPoint x="30" y="180" as="targetPoint" />
          </mxGeometry>
        </mxCell>
        <mxCell id="5pwwVfKfr-lbxXTn7qkp-33" value="find events" style="ellipse;whiteSpace=wrap;html=1;" parent="1" vertex="1">
          <mxGeometry x="320" y="150" width="140" height="50" as="geometry" />
        </mxCell>
        <mxCell id="5pwwVfKfr-lbxXTn7qkp-34" value="view events" style="ellipse;whiteSpace=wrap;html=1;" parent="1" vertex="1">
          <mxGeometry x="600" y="110" width="140" height="50" as="geometry" />
        </mxCell>
        <mxCell id="5pwwVfKfr-lbxXTn7qkp-36" value="" style="endArrow=none;html=1;rounded=0;entryX=0;entryY=0.5;entryDx=0;entryDy=0;" parent="1" source="5pwwVfKfr-lbxXTn7qkp-3" target="5pwwVfKfr-lbxXTn7qkp-33" edge="1">
          <mxGeometry width="50" height="50" relative="1" as="geometry">
            <mxPoint x="240" y="-10" as="sourcePoint" />
            <mxPoint x="290" y="-60" as="targetPoint" />
          </mxGeometry>
        </mxCell>
        <mxCell id="5pwwVfKfr-lbxXTn7qkp-39" value="reserve event" style="ellipse;whiteSpace=wrap;html=1;" parent="1" vertex="1">
          <mxGeometry x="590" y="200" width="140" height="50" as="geometry" />
        </mxCell>
        <mxCell id="5pwwVfKfr-lbxXTn7qkp-40" value="pay for event" style="ellipse;whiteSpace=wrap;html=1;" parent="1" vertex="1">
          <mxGeometry x="590" y="300" width="140" height="50" as="geometry" />
        </mxCell>
        <mxCell id="5pwwVfKfr-lbxXTn7qkp-41" value="receive invitation" style="ellipse;whiteSpace=wrap;html=1;" parent="1" vertex="1">
          <mxGeometry x="590" y="400" width="140" height="50" as="geometry" />
        </mxCell>
        <mxCell id="5pwwVfKfr-lbxXTn7qkp-44" value="&amp;lt;&amp;lt;include&amp;gt;&amp;gt;" style="endArrow=open;endSize=12;dashed=1;html=1;rounded=0;exitX=1;exitY=0;exitDx=0;exitDy=0;entryX=0;entryY=0.5;entryDx=0;entryDy=0;" parent="1" source="5pwwVfKfr-lbxXTn7qkp-33" target="5pwwVfKfr-lbxXTn7qkp-34" edge="1">
          <mxGeometry width="160" relative="1" as="geometry">
            <mxPoint x="390" y="10" as="sourcePoint" />
            <mxPoint x="490" y="-190" as="targetPoint" />
          </mxGeometry>
        </mxCell>
        <mxCell id="5pwwVfKfr-lbxXTn7qkp-45" value="user authentication" style="ellipse;whiteSpace=wrap;html=1;" parent="1" vertex="1">
          <mxGeometry x="860" y="300" width="140" height="50" as="geometry" />
        </mxCell>
        <mxCell id="5pwwVfKfr-lbxXTn7qkp-46" value="&amp;lt;&amp;lt;include&amp;gt;&amp;gt;" style="endArrow=open;endSize=12;dashed=1;html=1;rounded=0;exitX=1;exitY=0.5;exitDx=0;exitDy=0;entryX=0;entryY=0.5;entryDx=0;entryDy=0;" parent="1" source="5pwwVfKfr-lbxXTn7qkp-39" target="5pwwVfKfr-lbxXTn7qkp-45" edge="1">
          <mxGeometry width="160" relative="1" as="geometry">
            <mxPoint x="819.997474683058" y="-67.67766952966372" as="sourcePoint" />
            <mxPoint x="985.5" y="-130" as="targetPoint" />
          </mxGeometry>
        </mxCell>
        <mxCell id="5pwwVfKfr-lbxXTn7qkp-47" value="&amp;lt;&amp;lt;include&amp;gt;&amp;gt;" style="endArrow=open;endSize=12;dashed=1;html=1;rounded=0;exitX=1;exitY=0.5;exitDx=0;exitDy=0;entryX=0;entryY=0.5;entryDx=0;entryDy=0;" parent="1" source="5pwwVfKfr-lbxXTn7qkp-40" target="5pwwVfKfr-lbxXTn7qkp-45" edge="1">
          <mxGeometry width="160" relative="1" as="geometry">
            <mxPoint x="790" as="sourcePoint" />
            <mxPoint x="950" y="100" as="targetPoint" />
          </mxGeometry>
        </mxCell>
        <mxCell id="5pwwVfKfr-lbxXTn7qkp-48" value="&amp;lt;&amp;lt;include&amp;gt;&amp;gt;" style="endArrow=open;endSize=12;dashed=1;html=1;rounded=0;exitX=1;exitY=0.5;exitDx=0;exitDy=0;entryX=0;entryY=0.5;entryDx=0;entryDy=0;" parent="1" source="5pwwVfKfr-lbxXTn7qkp-41" target="5pwwVfKfr-lbxXTn7qkp-45" edge="1">
          <mxGeometry width="160" relative="1" as="geometry">
            <mxPoint x="790" y="80" as="sourcePoint" />
            <mxPoint x="950" y="180" as="targetPoint" />
          </mxGeometry>
        </mxCell>
        <mxCell id="5pwwVfKfr-lbxXTn7qkp-49" value="&amp;lt;&amp;lt;include&amp;gt;&amp;gt;" style="endArrow=open;endSize=12;dashed=1;html=1;rounded=0;exitX=0.5;exitY=1;exitDx=0;exitDy=0;entryX=0.5;entryY=0;entryDx=0;entryDy=0;" parent="1" source="5pwwVfKfr-lbxXTn7qkp-39" target="5pwwVfKfr-lbxXTn7qkp-40" edge="1">
          <mxGeometry width="160" relative="1" as="geometry">
            <mxPoint x="480" y="-80" as="sourcePoint" />
            <mxPoint x="640" y="20" as="targetPoint" />
          </mxGeometry>
        </mxCell>
        <mxCell id="5pwwVfKfr-lbxXTn7qkp-50" value="&amp;lt;&amp;lt;include&amp;gt;&amp;gt;" style="endArrow=open;endSize=12;dashed=1;html=1;rounded=0;exitX=0.5;exitY=1;exitDx=0;exitDy=0;entryX=0.5;entryY=0;entryDx=0;entryDy=0;" parent="1" source="5pwwVfKfr-lbxXTn7qkp-40" target="5pwwVfKfr-lbxXTn7qkp-41" edge="1">
          <mxGeometry width="160" relative="1" as="geometry">
            <mxPoint x="495" y="50" as="sourcePoint" />
            <mxPoint x="655" y="150" as="targetPoint" />
          </mxGeometry>
        </mxCell>
        <mxCell id="5pwwVfKfr-lbxXTn7qkp-51" value="&amp;lt;&amp;lt;extend&amp;gt;&amp;gt;" style="endArrow=open;endSize=12;dashed=1;html=1;rounded=0;exitX=0;exitY=0.5;exitDx=0;exitDy=0;entryX=1;entryY=0.5;entryDx=0;entryDy=0;" parent="1" source="5pwwVfKfr-lbxXTn7qkp-39" target="5pwwVfKfr-lbxXTn7qkp-33" edge="1">
          <mxGeometry width="160" relative="1" as="geometry">
            <mxPoint x="490" y="-60" as="sourcePoint" />
            <mxPoint x="650" y="40" as="targetPoint" />
          </mxGeometry>
        </mxCell>
        <mxCell id="5pwwVfKfr-lbxXTn7qkp-52" value="create event" style="ellipse;whiteSpace=wrap;html=1;" parent="1" vertex="1">
          <mxGeometry x="330" y="-70" width="140" height="50" as="geometry" />
        </mxCell>
        <mxCell id="5pwwVfKfr-lbxXTn7qkp-53" value="" style="endArrow=none;html=1;rounded=0;entryX=0;entryY=0.5;entryDx=0;entryDy=0;" parent="1" source="5pwwVfKfr-lbxXTn7qkp-3" target="5pwwVfKfr-lbxXTn7qkp-52" edge="1">
          <mxGeometry width="50" height="50" relative="1" as="geometry">
            <mxPoint x="280" y="-130" as="sourcePoint" />
            <mxPoint x="330" y="-180" as="targetPoint" />
          </mxGeometry>
        </mxCell>
        <mxCell id="5pwwVfKfr-lbxXTn7qkp-54" value="update event" style="ellipse;whiteSpace=wrap;html=1;" parent="1" vertex="1">
          <mxGeometry x="610" y="-70" width="140" height="50" as="geometry" />
        </mxCell>
        <mxCell id="5pwwVfKfr-lbxXTn7qkp-55" value="&amp;lt;&amp;lt;include&amp;gt;&amp;gt;" style="endArrow=open;endSize=12;dashed=1;html=1;rounded=0;exitX=1;exitY=0.5;exitDx=0;exitDy=0;entryX=0;entryY=0.5;entryDx=0;entryDy=0;" parent="1" source="5pwwVfKfr-lbxXTn7qkp-52" target="5pwwVfKfr-lbxXTn7qkp-54" edge="1">
          <mxGeometry width="160" relative="1" as="geometry">
            <mxPoint x="409.99747468305804" y="-237.67766952966372" as="sourcePoint" />
            <mxPoint x="570.5" y="-260" as="targetPoint" />
          </mxGeometry>
        </mxCell>
        <mxCell id="5pwwVfKfr-lbxXTn7qkp-56" value="&amp;lt;&amp;lt;include&amp;gt;&amp;gt;" style="endArrow=open;endSize=12;dashed=1;html=1;rounded=0;exitX=0.809;exitY=1.008;exitDx=0;exitDy=0;entryX=0.286;entryY=0.072;entryDx=0;entryDy=0;exitPerimeter=0;entryPerimeter=0;" parent="1" source="5pwwVfKfr-lbxXTn7qkp-54" target="5pwwVfKfr-lbxXTn7qkp-45" edge="1">
          <mxGeometry width="160" relative="1" as="geometry">
            <mxPoint x="749.997474683058" y="72.32233047033628" as="sourcePoint" />
            <mxPoint x="910.5" y="50" as="targetPoint" />
          </mxGeometry>
        </mxCell>
        <mxCell id="5pwwVfKfr-lbxXTn7qkp-57" value="sign up" style="ellipse;whiteSpace=wrap;html=1;" parent="1" vertex="1">
          <mxGeometry x="320" y="600" width="140" height="50" as="geometry" />
        </mxCell>
        <mxCell id="5pwwVfKfr-lbxXTn7qkp-58" value="" style="endArrow=none;html=1;rounded=0;exitX=0;exitY=0.5;exitDx=0;exitDy=0;" parent="1" source="5pwwVfKfr-lbxXTn7qkp-57" target="5pwwVfKfr-lbxXTn7qkp-8" edge="1">
          <mxGeometry width="50" height="50" relative="1" as="geometry">
            <mxPoint x="480" y="490" as="sourcePoint" />
            <mxPoint x="530" y="440" as="targetPoint" />
          </mxGeometry>
        </mxCell>
        <mxCell id="5pwwVfKfr-lbxXTn7qkp-59" value="&amp;lt;&amp;lt;include&amp;gt;&amp;gt;" style="endArrow=open;endSize=12;dashed=1;html=1;rounded=0;exitX=1;exitY=0.5;exitDx=0;exitDy=0;entryX=0.5;entryY=1;entryDx=0;entryDy=0;" parent="1" source="5pwwVfKfr-lbxXTn7qkp-57" target="5pwwVfKfr-lbxXTn7qkp-45" edge="1">
          <mxGeometry width="160" relative="1" as="geometry">
            <mxPoint x="710" y="570" as="sourcePoint" />
            <mxPoint x="840" y="470" as="targetPoint" />
          </mxGeometry>
        </mxCell>
        <mxCell id="5pwwVfKfr-lbxXTn7qkp-60" value="" style="endArrow=none;html=1;rounded=0;entryX=0.5;entryY=1;entryDx=0;entryDy=0;" parent="1" source="5pwwVfKfr-lbxXTn7qkp-8" target="5pwwVfKfr-lbxXTn7qkp-33" edge="1">
          <mxGeometry width="50" height="50" relative="1" as="geometry">
            <mxPoint x="270" y="450" as="sourcePoint" />
            <mxPoint x="320" y="400" as="targetPoint" />
          </mxGeometry>
        </mxCell>
        <mxCell id="5pwwVfKfr-lbxXTn7qkp-61" value="database" style="shape=umlActor;verticalLabelPosition=bottom;verticalAlign=top;html=1;outlineConnect=0;" parent="1" vertex="1">
          <mxGeometry x="1250" y="295" width="30" height="60" as="geometry" />
        </mxCell>
        <mxCell id="5pwwVfKfr-lbxXTn7qkp-62" value="" style="endArrow=none;html=1;rounded=0;exitX=1;exitY=0.5;exitDx=0;exitDy=0;" parent="1" source="5pwwVfKfr-lbxXTn7qkp-45" target="5pwwVfKfr-lbxXTn7qkp-61" edge="1">
          <mxGeometry width="50" height="50" relative="1" as="geometry">
            <mxPoint x="920" y="370" as="sourcePoint" />
            <mxPoint x="970" y="320" as="targetPoint" />
          </mxGeometry>
        </mxCell>
        <mxCell id="5pwwVfKfr-lbxXTn7qkp-63" value="admin" style="shape=umlActor;verticalLabelPosition=bottom;verticalAlign=top;html=1;outlineConnect=0;" parent="1" vertex="1">
          <mxGeometry x="1245" y="25" width="30" height="60" as="geometry" />
        </mxCell>
        <mxCell id="5pwwVfKfr-lbxXTn7qkp-65" value="manage system" style="ellipse;whiteSpace=wrap;html=1;" parent="1" vertex="1">
          <mxGeometry x="950" y="30" width="140" height="50" as="geometry" />
        </mxCell>
        <mxCell id="5pwwVfKfr-lbxXTn7qkp-66" value="" style="endArrow=none;html=1;rounded=0;entryX=0;entryY=0.5;entryDx=0;entryDy=0;entryPerimeter=0;exitX=1;exitY=0.5;exitDx=0;exitDy=0;" parent="1" source="5pwwVfKfr-lbxXTn7qkp-65" target="5pwwVfKfr-lbxXTn7qkp-63" edge="1">
          <mxGeometry width="50" height="50" relative="1" as="geometry">
            <mxPoint x="1030" y="140" as="sourcePoint" />
            <mxPoint x="1080" y="90" as="targetPoint" />
          </mxGeometry>
        </mxCell>
        <mxCell id="5pwwVfKfr-lbxXTn7qkp-67" value="&amp;lt;&amp;lt;include&amp;gt;&amp;gt;" style="endArrow=open;endSize=12;dashed=1;html=1;rounded=0;exitX=0;exitY=1;exitDx=0;exitDy=0;entryX=0.5;entryY=0;entryDx=0;entryDy=0;" parent="1" source="5pwwVfKfr-lbxXTn7qkp-65" target="5pwwVfKfr-lbxXTn7qkp-45" edge="1">
          <mxGeometry width="160" relative="1" as="geometry">
            <mxPoint x="900.0000000000002" y="-23.200000000000138" as="sourcePoint" />
            <mxPoint x="1076.7800000000004" y="299.9999999999999" as="targetPoint" />
          </mxGeometry>
        </mxCell>
        <mxCell id="5pwwVfKfr-lbxXTn7qkp-69" value="" style="swimlane;startSize=0;" parent="1" vertex="1">
          <mxGeometry x="200" y="-160" width="960" height="840" as="geometry" />
        </mxCell>
        <mxCell id="5pwwVfKfr-lbxXTn7qkp-70" value="&lt;b&gt;&lt;font style=&quot;font-size: 20px&quot;&gt;Partydom System&lt;/font&gt;&lt;/b&gt;" style="text;html=1;align=center;verticalAlign=middle;resizable=0;points=[];autosize=1;strokeColor=none;fillColor=none;" parent="5pwwVfKfr-lbxXTn7qkp-69" vertex="1">
          <mxGeometry x="410" y="20" width="180" height="20" as="geometry" />
        </mxCell>
        <mxCell id="5pwwVfKfr-lbxXTn7qkp-72" value="receive perfomance reports" style="ellipse;whiteSpace=wrap;html=1;" parent="5pwwVfKfr-lbxXTn7qkp-69" vertex="1">
          <mxGeometry x="650" y="50" width="140" height="50" as="geometry" />
        </mxCell>
        <mxCell id="5pwwVfKfr-lbxXTn7qkp-74" value="review activity" style="ellipse;whiteSpace=wrap;html=1;" parent="5pwwVfKfr-lbxXTn7qkp-69" vertex="1">
          <mxGeometry x="560" y="130" width="140" height="50" as="geometry" />
        </mxCell>
        <mxCell id="S3dvbtb0UvzpYBgDhWfe-1" value="like and or follow" style="ellipse;whiteSpace=wrap;html=1;" vertex="1" parent="5pwwVfKfr-lbxXTn7qkp-69">
          <mxGeometry x="280" y="170" width="140" height="50" as="geometry" />
        </mxCell>
        <mxCell id="S3dvbtb0UvzpYBgDhWfe-3" value="give feedback" style="ellipse;whiteSpace=wrap;html=1;" vertex="1" parent="5pwwVfKfr-lbxXTn7qkp-69">
          <mxGeometry x="210" y="460" width="140" height="50" as="geometry" />
        </mxCell>
        <mxCell id="5pwwVfKfr-lbxXTn7qkp-75" value="&amp;lt;&amp;lt;include&amp;gt;&amp;gt;" style="endArrow=open;endSize=12;dashed=1;html=1;rounded=0;exitX=0.5;exitY=1;exitDx=0;exitDy=0;entryX=0.5;entryY=0;entryDx=0;entryDy=0;" parent="1" source="5pwwVfKfr-lbxXTn7qkp-72" target="5pwwVfKfr-lbxXTn7qkp-65" edge="1">
          <mxGeometry width="160" relative="1" as="geometry">
            <mxPoint x="1079.7352627327477" y="-130.00066786902826" as="sourcePoint" />
            <mxPoint x="1040" y="97.60000000000002" as="targetPoint" />
          </mxGeometry>
        </mxCell>
        <mxCell id="5pwwVfKfr-lbxXTn7qkp-76" value="&amp;lt;&amp;lt;include&amp;gt;&amp;gt;" style="endArrow=open;endSize=12;dashed=1;html=1;rounded=0;exitX=0.5;exitY=1;exitDx=0;exitDy=0;entryX=0;entryY=0.5;entryDx=0;entryDy=0;" parent="1" source="5pwwVfKfr-lbxXTn7qkp-74" target="5pwwVfKfr-lbxXTn7qkp-65" edge="1">
          <mxGeometry width="160" relative="1" as="geometry">
            <mxPoint x="989.7352627327477" y="92.39933213097174" as="sourcePoint" />
            <mxPoint x="950" y="320" as="targetPoint" />
          </mxGeometry>
        </mxCell>
        <mxCell id="S3dvbtb0UvzpYBgDhWfe-2" value="&amp;lt;&amp;lt;extend&amp;gt;&amp;gt;" style="endArrow=open;endSize=12;dashed=1;html=1;rounded=0;exitX=0;exitY=0.5;exitDx=0;exitDy=0;entryX=0.5;entryY=0;entryDx=0;entryDy=0;" edge="1" parent="1" source="S3dvbtb0UvzpYBgDhWfe-1" target="5pwwVfKfr-lbxXTn7qkp-33">
          <mxGeometry width="160" relative="1" as="geometry">
            <mxPoint x="430" y="100" as="sourcePoint" />
            <mxPoint x="300" y="50" as="targetPoint" />
          </mxGeometry>
        </mxCell>
        <mxCell id="S3dvbtb0UvzpYBgDhWfe-4" value="&amp;lt;&amp;lt;extend&amp;gt;&amp;gt;" style="endArrow=open;endSize=12;dashed=1;html=1;rounded=0;exitX=0;exitY=0;exitDx=0;exitDy=0;entryX=0.5;entryY=1;entryDx=0;entryDy=0;" edge="1" parent="1" source="S3dvbtb0UvzpYBgDhWfe-3" target="5pwwVfKfr-lbxXTn7qkp-33">
          <mxGeometry width="160" relative="1" as="geometry">
            <mxPoint x="500" y="200" as="sourcePoint" />
            <mxPoint x="380" y="230" as="targetPoint" />
          </mxGeometry>
        </mxCell>
      </root>
    </mxGraphModel>
  </diagram>
</mxfile>
